# Alias OBJ Model File
# Exported from SketchUp, (c) 2000-2012 Trimble Navigation Limited
# File units = inches

mtllib 000011.mtl

g Mesh1 Group1 Model

usemtl c8c64b071a57ec768c320ea7279b9b15
v 78.7402 9.84252 78.7402
vt 2.22045e-016 0
vn 0 0 1
v 78.7402 88.5827 78.7402
vt 2.22045e-016 0.999875
v 59.0551 88.5827 78.7402
vt -0.249969 0.999875
v 59.0551 9.84252 78.7402
vt -0.249969 0
f 1/1/1 2/2/1 3/3/1 4/4/1 

vt 0.499938 0
vn 1 0 -0
v 78.7402 9.84252 -78.7402
vt 2.49969 0
v 78.7402 88.5827 -78.7402
vt 2.49969 0.999875
vt 0.499938 0.999875
f 1/5/2 5/6/2 6/7/2 2/8/2 

vt 1.99975 0
vn 0 0 -1
v 59.0551 9.84252 -78.7402
vt 2.24972 0
v 59.0551 88.5827 -78.7402
vt 2.24972 0.999875
vt 1.99975 0.999875
f 5/9/3 7/10/3 8/11/3 6/12/3 

vt -4.44089e-016 0
vn -1 0 -0
vt 1.99975 0
vt 1.99975 0.999875
vt -4.44089e-016 0.999875
f 7/13/4 4/14/4 3/15/4 8/16/4 

vt 3.60911e-016 1.24984
vn 0 1 -0
vt 3.60911e-016 0.999875
vt 1.99975 0.999875
vt 1.99975 1.24984
f 3/17/5 2/18/5 6/19/5 8/20/5 

g Mesh2 Group2 Model

v -59.0551 9.84252 78.7402
v -59.0551 88.5827 78.7402
v -78.7402 88.5827 78.7402
v -78.7402 9.84252 78.7402
f 9/1/1 10/2/1 11/3/1 12/4/1 

v -59.0551 9.84252 -78.7402
v -59.0551 88.5827 -78.7402
f 9/5/2 13/6/2 14/7/2 10/8/2 

v -78.7402 9.84252 -78.7402
v -78.7402 88.5827 -78.7402
f 13/9/3 15/10/3 16/11/3 14/12/3 

f 15/13/4 12/14/4 11/15/4 16/16/4 

f 11/17/5 10/18/5 14/19/5 16/20/5 

g Mesh3 Group3 Model

usemtl JdzLs
v 78.7402 -1.57772e-030 78.7402
vt 0.0624922 0
v 78.7402 -1.57772e-030 -78.7402
vt 0.0624922 0.999875
v 78.7402 9.84252 -78.7402
vt 0 0.999875
vt 0 0
f 17/21/2 18/22/2 19/23/2 1/24/2 

vt 0 1.06237
v -78.7402 -1.57772e-030 -78.7402
vt -0.999875 1.06237
v -78.7402 9.84252 -78.7402
vt -0.999875 0.999875
vt 0 0.999875
f 18/25/3 20/26/3 21/27/3 19/28/3 

vt -1.06237 0.999875
v -78.7402 -1.57772e-030 78.7402
vt -1.06237 9.02276e-017
vt -0.999875 9.02276e-017
vt -0.999875 0.999875
f 20/29/4 22/30/4 12/31/4 21/32/4 

vt -0.999875 -0.0624922
vt 0 -0.0624922
vt -0.999875 0
f 22/33/1 17/34/1 1/24/1 12/35/1 

vt -0.999875 0.999875
f 12/35/5 1/24/5 19/23/5 21/36/5 

