# Alias OBJ Model File
# Exported from SketchUp, (c) 2000-2012 Trimble Navigation Limited
# File units = inches

mtllib 000004.mtl

g Mesh1 Group1 Model

usemtl c8c64b071a57ec768c320ea7279b9b15
v -59.0551 9.84252 78.7402
vt 2.22045e-016 0
vn 0 0 1
v -59.0551 88.5827 78.7402
vt 2.22045e-016 0.999875
v -78.7402 88.5827 78.7402
vt -0.249969 0.999875
v -78.7402 9.84252 78.7402
vt -0.249969 0
f 1/1/1 2/2/1 3/3/1 4/4/1 

vt 0.499938 0
vn 1 0 -0
v -59.0551 9.84252 -78.7402
vt 2.49969 0
v -59.0551 88.5827 -78.7402
vt 2.49969 0.999875
vt 0.499938 0.999875
f 1/5/2 5/6/2 6/7/2 2/8/2 

vt 1.99975 0
vn 0 0 -1
v -78.7402 9.84252 -78.7402
vt 2.24972 0
v -78.7402 88.5827 -78.7402
vt 2.24972 0.999875
vt 1.99975 0.999875
f 5/9/3 7/10/3 8/11/3 6/12/3 

vt -4.44089e-016 0
vn -1 0 -0
vt 1.99975 0
vt 1.99975 0.999875
vt -4.44089e-016 0.999875
f 7/13/4 4/14/4 3/15/4 8/16/4 

vt 3.60911e-016 1.24984
vn 0 1 -0
vt 3.60911e-016 0.999875
vt 1.99975 0.999875
vt 1.99975 1.24984
f 3/17/5 2/18/5 6/19/5 8/20/5 

g Mesh2 Group2 Model

v 78.7402 9.84252 78.7402
vt 1.49981 1.08273e-015
v 78.7402 88.5827 78.7402
vt 1.49981 0.999875
v 59.0551 88.5827 78.7402
vt 1.24984 0.999875
v 59.0551 9.84252 78.7402
vt 1.24984 1.08273e-015
f 9/21/1 10/22/1 11/23/1 12/24/1 

v 78.7402 9.84252 59.0551
vt 0.749906 0
v 78.7402 88.5827 59.0551
vt 0.749906 0.999875
vt 0.499938 0.999875
f 9/5/2 13/25/2 14/26/2 10/27/2 

usemtl FrontColor
v 59.0551 9.84252 59.0551
vt 0 19.685
vn 0 -1 -0
vt -19.685 19.685
vt -19.685 0
vt 0 0
f 15/28/6 13/29/6 9/30/6 12/31/6 

usemtl c8c64b071a57ec768c320ea7279b9b15
vt 0.749906 8.81675e-047
vn 1.80478e-015 -3.52714e-046 -1
vt 0.999875 8.81675e-047
v 59.0551 88.5827 59.0551
vt 0.999875 0.999875
vt 0.749906 0.999875
f 13/32/7 15/33/7 16/34/7 14/35/7 

vt 1.24984 0.999875
vt 0.999875 0.999875
vt 0.999875 7.21821e-016
vt 1.24984 7.21821e-016
f 11/36/4 16/37/4 15/38/4 12/39/4 

vt 0.249969 0.999875
vt 0.249969 1.24984
f 10/18/5 14/40/5 16/41/5 11/17/5 

g Mesh3 Group3 Model

v 78.7402 9.84252 -59.0551
v 78.7402 88.5827 -59.0551
v 59.0551 88.5827 -59.0551
v 59.0551 9.84252 -59.0551
f 17/21/1 18/22/1 19/23/1 20/24/1 

v 78.7402 9.84252 -78.7402
v 78.7402 88.5827 -78.7402
f 17/5/2 21/25/2 22/26/2 18/27/2 

usemtl FrontColor
v 59.0551 9.84252 -78.7402
f 23/28/6 21/29/6 17/30/6 20/31/6 

usemtl c8c64b071a57ec768c320ea7279b9b15
v 59.0551 88.5827 -78.7402
f 21/32/7 23/33/7 24/34/7 22/35/7 

f 19/36/4 24/37/4 23/38/4 20/39/4 

f 18/18/5 22/40/5 24/41/5 19/17/5 

g Mesh4 Group4 Model

usemtl JdzLs
v 78.7402 -1.57772e-030 78.7402
vt 0.0624922 0
v 78.7402 -1.57772e-030 -78.7402
vt 0.0624922 0.999875
vt 0 0.999875
f 25/42/2 26/43/2 21/44/2 9/31/2 

vt 0 1.06237
v -78.7402 -1.57772e-030 -78.7402
vt -0.999875 1.06237
v -78.7402 9.84252 -78.7402
vt -0.999875 0.999875
vt 0 0.999875
f 26/45/3 27/46/3 28/47/3 21/48/3 

vt -1.06237 0.999875
v -78.7402 -1.57772e-030 78.7402
vt -1.06237 9.02276e-017
v -78.7402 9.84252 78.7402
vt -0.999875 9.02276e-017
vt -0.999875 0.999875
f 27/49/4 29/50/4 30/51/4 28/52/4 

vt -0.999875 -0.0624922
vt 0 -0.0624922
vt -0.999875 0
f 29/53/1 25/54/1 9/31/1 30/55/1 

vt -0.999875 0.999875
f 30/55/5 9/31/5 21/44/5 28/56/5 

