# Alias OBJ Model File
# Exported from SketchUp, (c) 2000-2012 Trimble Navigation Limited
# File units = inches

mtllib 000009.mtl

g Mesh1 Group1 Model

usemtl c8c64b071a57ec768c320ea7279b9b15
v -59.0551 9.84252 78.7402
vt 1.49981 1.08273e-015
vn 0 0 1
v -59.0551 88.5827 78.7402
vt 1.49981 0.999875
v -78.7402 88.5827 78.7402
vt 1.24984 0.999875
v -78.7402 9.84252 78.7402
vt 1.24984 1.08273e-015
f 1/1/1 2/2/1 3/3/1 4/4/1 

vt 0.499938 0
vn 1 0 -0
v -59.0551 9.84252 59.0551
vt 0.749906 0
v -59.0551 88.5827 59.0551
vt 0.749906 0.999875
vt 0.499938 0.999875
f 1/5/2 5/6/2 6/7/2 2/8/2 

usemtl FrontColor
v -78.7402 9.84252 59.0551
vt 0 19.685
vn 0 -1 -0
vt -19.685 19.685
vt -19.685 0
vt 0 0
f 7/9/3 5/10/3 1/11/3 4/12/3 

usemtl c8c64b071a57ec768c320ea7279b9b15
vt 0.749906 8.81675e-047
vn 1.80478e-015 -3.52714e-046 -1
vt 0.999875 8.81675e-047
v -78.7402 88.5827 59.0551
vt 0.999875 0.999875
vt 0.749906 0.999875
f 5/13/4 7/14/4 8/15/4 6/16/4 

vt 1.24984 0.999875
vn -1 0 -0
vt 0.999875 0.999875
vt 0.999875 7.21821e-016
vt 1.24984 7.21821e-016
f 3/17/5 8/18/5 7/19/5 4/20/5 

vt 3.60911e-016 0.999875
vn 0 1 -0
vt 0.249969 0.999875
vt 0.249969 1.24984
vt 3.60911e-016 1.24984
f 2/21/6 6/22/6 8/23/6 3/24/6 

g Mesh2 Group2 Model

v 78.7402 9.84252 78.7402
v 78.7402 88.5827 78.7402
v 59.0551 88.5827 78.7402
v 59.0551 9.84252 78.7402
f 9/1/1 10/2/1 11/3/1 12/4/1 

v 78.7402 9.84252 59.0551
v 78.7402 88.5827 59.0551
f 9/5/2 13/6/2 14/7/2 10/8/2 

usemtl FrontColor
v 59.0551 9.84252 59.0551
f 15/9/3 13/10/3 9/11/3 12/12/3 

usemtl c8c64b071a57ec768c320ea7279b9b15
v 59.0551 88.5827 59.0551
f 13/13/4 15/14/4 16/15/4 14/16/4 

f 11/17/5 16/18/5 15/19/5 12/20/5 

f 10/21/6 14/22/6 16/23/6 11/24/6 

g Mesh3 Group3 Model

usemtl JdzLs
v 78.7402 -1.57772e-030 78.7402
vt 0.0624922 0
v 78.7402 -1.57772e-030 -78.7402
vt 0.0624922 0.999875
v 78.7402 9.84252 -78.7402
vt 0 0.999875
f 17/25/2 18/26/2 19/27/2 9/12/2 

vt 0 1.06237
vn 0 0 -1
v -78.7402 -1.57772e-030 -78.7402
vt -0.999875 1.06237
v -78.7402 9.84252 -78.7402
vt -0.999875 0.999875
vt 0 0.999875
f 18/28/7 20/29/7 21/30/7 19/31/7 

vt -1.06237 0.999875
v -78.7402 -1.57772e-030 78.7402
vt -1.06237 9.02276e-017
vt -0.999875 9.02276e-017
vt -0.999875 0.999875
f 20/32/5 22/33/5 4/34/5 21/35/5 

vt -0.999875 -0.0624922
vt 0 -0.0624922
vt -0.999875 0
f 22/36/1 17/37/1 9/12/1 4/38/1 

vt -0.999875 0.999875
f 4/38/6 9/12/6 19/27/6 21/39/6 

g Mesh4 Group4 Model

usemtl c8c64b071a57ec768c320ea7279b9b15
v -59.0551 9.84252 -59.0551
v -59.0551 88.5827 -59.0551
v -78.7402 88.5827 -59.0551
v -78.7402 9.84252 -59.0551
f 23/1/1 24/2/1 25/3/1 26/4/1 

v -59.0551 9.84252 -78.7402
v -59.0551 88.5827 -78.7402
f 23/5/2 27/6/2 28/7/2 24/8/2 

usemtl FrontColor
f 21/9/3 27/10/3 23/11/3 26/12/3 

usemtl c8c64b071a57ec768c320ea7279b9b15
v -78.7402 88.5827 -78.7402
f 27/13/4 21/14/4 29/15/4 28/16/4 

f 25/17/5 29/18/5 21/19/5 26/20/5 

f 24/21/6 28/22/6 29/23/6 25/24/6 

