# Alias OBJ Model File
# Exported from SketchUp, (c) 2000-2012 Trimble Navigation Limited
# File units = inches

mtllib 000005.mtl

g Mesh1 Group1 Model

usemtl c8c64b071a57ec768c320ea7279b9b15
v 78.7402 9.84252 78.7402
vt 1.49981 1.08273e-015
vn 0 0 1
v 78.7402 88.5827 78.7402
vt 1.49981 0.999875
v 59.0551 88.5827 78.7402
vt 1.24984 0.999875
v 59.0551 9.84252 78.7402
vt 1.24984 1.08273e-015
f 1/1/1 2/2/1 3/3/1 4/4/1 

vt 0.499938 0
vn 1 0 -0
v 78.7402 9.84252 59.0551
vt 0.749906 0
v 78.7402 88.5827 59.0551
vt 0.749906 0.999875
vt 0.499938 0.999875
f 1/5/2 5/6/2 6/7/2 2/8/2 

usemtl FrontColor
v 59.0551 9.84252 59.0551
vt 0 19.685
vn 0 -1 -0
vt -19.685 19.685
vt -19.685 0
vt 0 0
f 7/9/3 5/10/3 1/11/3 4/12/3 

usemtl c8c64b071a57ec768c320ea7279b9b15
vt 0.749906 8.81675e-047
vn 1.80478e-015 -3.52714e-046 -1
vt 0.999875 8.81675e-047
v 59.0551 88.5827 59.0551
vt 0.999875 0.999875
vt 0.749906 0.999875
f 5/13/4 7/14/4 8/15/4 6/16/4 

vt 1.24984 0.999875
vn -1 0 -0
vt 0.999875 0.999875
vt 0.999875 7.21821e-016
vt 1.24984 7.21821e-016
f 3/17/5 8/18/5 7/19/5 4/20/5 

vt 3.60911e-016 0.999875
vn 0 1 -0
vt 0.249969 0.999875
vt 0.249969 1.24984
vt 3.60911e-016 1.24984
f 2/21/6 6/22/6 8/23/6 3/24/6 

g Mesh2 Group2 Model

v -78.7402 9.84252 -78.7402
vt 1.99975 0
vn 8.54895e-016 0 -1
v -78.7402 88.5827 -78.7402
vt 1.99975 0.999875
v 78.7402 88.5827 -78.7402
vt 0 0.999875
v 78.7402 9.84252 -78.7402
f 9/25/7 10/26/7 11/27/7 12/12/7 

vt -4.44089e-016 -4.76427e-049
vn -1 -1.85788e-033 3.79953e-017
v -78.7402 9.84252 78.7402
vt 1.99975 -3.35264e-049
v -78.7402 88.5827 78.7402
vt -4.44089e-016 0.999875
f 9/28/8 13/29/8 14/26/8 10/30/8 

v -59.0551 9.84252 78.7402
vt 1.94289e-016 0
v -59.0551 88.5827 78.7402
vt 1.94289e-016 0.999875
vt -0.249969 0.999875
vt -0.249969 0
f 15/31/1 16/32/1 14/33/1 13/34/1 

v -59.0551 9.84252 -59.0551
vt 2.24972 0
v -59.0551 88.5827 -59.0551
vt 2.24972 0.999875
vt 0.499938 0.999875
f 15/5/2 17/35/2 18/36/2 16/37/2 

v 78.7402 88.5827 -59.0551
vt 2.49969 0.999875
vn -6.18781e-016 0 1
vt 0.749906 0.999875
vt 0.749906 0
v 78.7402 9.84252 -59.0551
vt 2.49969 0
f 19/38/9 18/39/9 17/40/9 20/41/9 

vt 4.2462e-016 1.24984
vt 0.249969 0.999875
vt 1.99975 0.999875
vt 1.99975 1.24984
f 10/42/6 18/43/6 19/44/6 11/45/6 

vt 1.99975 1.24984
vt 1.74978 0.999875
f 10/46/6 14/24/6 16/21/6 18/47/6 

vt 1.99975 0
vn 1 0 8.1532e-016
vt 2.24972 0
vt 2.24972 0.999875
vt 1.99975 0.999875
f 20/48/10 12/49/10 11/50/10 19/51/10 

g Mesh3 Group3 Model

usemtl JdzLs
v 78.7402 -1.57772e-030 78.7402
vt 0.0624922 0
v 78.7402 -1.57772e-030 -78.7402
vt 0.0624922 0.999875
v 78.7402 9.84252 -78.7402
vt 0 0.999875
f 21/52/2 22/53/2 23/54/2 1/12/2 

vt 0 1.06237
vn 0 0 -1
v -78.7402 -1.57772e-030 -78.7402
vt -0.999875 1.06237
v -78.7402 9.84252 -78.7402
vt -0.999875 0.999875
vt 0 0.999875
f 22/55/11 24/56/11 25/57/11 23/58/11 

vt -1.06237 0.999875
v -78.7402 -1.57772e-030 78.7402
vt -1.06237 9.02276e-017
v -78.7402 9.84252 78.7402
vt -0.999875 9.02276e-017
vt -0.999875 0.999875
f 24/59/5 26/60/5 27/61/5 25/62/5 

vt -0.999875 -0.0624922
vt 0 -0.0624922
vt -0.999875 0
f 26/63/1 21/64/1 1/12/1 27/65/1 

vt -0.999875 0.999875
f 27/65/6 1/12/6 23/54/6 25/66/6 

