# Alias OBJ Model File
# Exported from SketchUp, (c) 2000-2012 Trimble Navigation Limited
# File units = inches

mtllib 000001.mtl

g Mesh1 Group1 Model

usemtl c8c64b071a57ec768c320ea7279b9b15
v -59.0551 9.84252 78.7402
vt 2.22045e-016 0
vn 0 0 1
v -59.0551 88.5827 78.7402
vt 2.22045e-016 0.999875
v -78.7402 88.5827 78.7402
vt -0.249969 0.999875
v -78.7402 9.84252 78.7402
vt -0.249969 0
f 1/1/1 2/2/1 3/3/1 4/4/1 

vt 0.499938 0
vn 1 0 -0
v -59.0551 9.84252 -78.7402
vt 2.49969 0
v -59.0551 88.5827 -78.7402
vt 2.49969 0.999875
vt 0.499938 0.999875
f 1/5/2 5/6/2 6/7/2 2/8/2 

vt 1.99975 0
vn 0 0 -1
v -78.7402 9.84252 -78.7402
vt 2.24972 0
v -78.7402 88.5827 -78.7402
vt 2.24972 0.999875
vt 1.99975 0.999875
f 5/9/3 7/10/3 8/11/3 6/12/3 

vt -4.44089e-016 0
vn -1 0 -0
vt 1.99975 0
vt 1.99975 0.999875
vt -4.44089e-016 0.999875
f 7/13/4 4/14/4 3/15/4 8/16/4 

vt 3.60911e-016 1.24984
vn 0 1 -0
vt 3.60911e-016 0.999875
vt 1.99975 0.999875
vt 1.99975 1.24984
f 3/17/5 2/18/5 6/19/5 8/20/5 

g Mesh2 Group2 Model

usemtl JdzLs
v 78.7402 -1.57772e-030 78.7402
vt 0.0624922 0
v 78.7402 -1.57772e-030 -78.7402
vt 0.0624922 0.999875
v 78.7402 9.84252 -78.7402
vt 0 0.999875
v 78.7402 9.84252 78.7402
vt 0 0
f 9/21/2 10/22/2 11/23/2 12/24/2 

vt 0 1.06237
v -78.7402 -1.57772e-030 -78.7402
vt -0.999875 1.06237
v -78.7402 9.84252 -78.7402
vt -0.999875 0.999875
vt 0 0.999875
f 10/25/3 13/26/3 14/27/3 11/28/3 

vt -1.06237 0.999875
v -78.7402 -1.57772e-030 78.7402
vt -1.06237 9.02276e-017
vt -0.999875 9.02276e-017
vt -0.999875 0.999875
f 13/29/4 15/30/4 4/31/4 14/32/4 

vt -0.999875 -0.0624922
vt 0 -0.0624922
vt -0.999875 0
f 15/33/1 9/34/1 12/24/1 4/35/1 

vt -0.999875 0.999875
f 4/35/5 12/24/5 11/23/5 14/36/5 

