# Alias OBJ Model File
# Exported from SketchUp, (c) 2000-2012 Trimble Navigation Limited
# File units = inches

mtllib 000010.mtl

g Mesh1 Group1 Model

usemtl c8c64b071a57ec768c320ea7279b9b15
v -59.0551 9.84252 78.7402
vt 1.49981 1.08273e-015
vn 0 0 1
v -59.0551 88.5827 78.7402
vt 1.49981 0.999875
v -78.7402 88.5827 78.7402
vt 1.24984 0.999875
v -78.7402 9.84252 78.7402
vt 1.24984 1.08273e-015
f 1/1/1 2/2/1 3/3/1 4/4/1 

vt 0.499938 0
vn 1 0 -0
v -59.0551 9.84252 59.0551
vt 0.749906 0
v -59.0551 88.5827 59.0551
vt 0.749906 0.999875
vt 0.499938 0.999875
f 1/5/2 5/6/2 6/7/2 2/8/2 

usemtl FrontColor
v -78.7402 9.84252 59.0551
vt 0 19.685
vn 0 -1 -0
vt -19.685 19.685
vt -19.685 0
vt 0 0
f 7/9/3 5/10/3 1/11/3 4/12/3 

usemtl c8c64b071a57ec768c320ea7279b9b15
vt 0.749906 8.81675e-047
vn 1.80478e-015 -3.52714e-046 -1
vt 0.999875 8.81675e-047
v -78.7402 88.5827 59.0551
vt 0.999875 0.999875
vt 0.749906 0.999875
f 5/13/4 7/14/4 8/15/4 6/16/4 

vt 1.24984 0.999875
vn -1 0 -0
vt 0.999875 0.999875
vt 0.999875 7.21821e-016
vt 1.24984 7.21821e-016
f 3/17/5 8/18/5 7/19/5 4/20/5 

vt 3.60911e-016 0.999875
vn 0 1 -0
vt 0.249969 0.999875
vt 0.249969 1.24984
vt 3.60911e-016 1.24984
f 2/21/6 6/22/6 8/23/6 3/24/6 

g Mesh2 Group2 Model

v 78.7402 9.84252 78.7402
v 78.7402 88.5827 78.7402
v 59.0551 88.5827 78.7402
v 59.0551 9.84252 78.7402
f 9/1/1 10/2/1 11/3/1 12/4/1 

v 78.7402 9.84252 59.0551
v 78.7402 88.5827 59.0551
f 9/5/2 13/6/2 14/7/2 10/8/2 

usemtl FrontColor
v 59.0551 9.84252 59.0551
f 15/9/3 13/10/3 9/11/3 12/12/3 

usemtl c8c64b071a57ec768c320ea7279b9b15
v 59.0551 88.5827 59.0551
f 13/13/4 15/14/4 16/15/4 14/16/4 

f 11/17/5 16/18/5 15/19/5 12/20/5 

f 10/21/6 14/22/6 16/23/6 11/24/6 

g Mesh3 Group3 Model

v 78.7402 9.84252 -59.0551
v 78.7402 88.5827 -59.0551
v 59.0551 88.5827 -59.0551
v 59.0551 9.84252 -59.0551
f 17/1/1 18/2/1 19/3/1 20/4/1 

v 78.7402 9.84252 -78.7402
v 78.7402 88.5827 -78.7402
f 17/5/2 21/6/2 22/7/2 18/8/2 

usemtl FrontColor
v 59.0551 9.84252 -78.7402
f 23/9/3 21/10/3 17/11/3 20/12/3 

usemtl c8c64b071a57ec768c320ea7279b9b15
v 59.0551 88.5827 -78.7402
f 21/13/4 23/14/4 24/15/4 22/16/4 

f 19/17/5 24/18/5 23/19/5 20/20/5 

f 18/21/6 22/22/6 24/23/6 19/24/6 

g Mesh4 Group4 Model

usemtl JdzLs
v 78.7402 -1.57772e-030 78.7402
vt 0.0624922 0
v 78.7402 -1.57772e-030 -78.7402
vt 0.0624922 0.999875
vt 0 0.999875
f 25/25/2 26/26/2 21/27/2 9/12/2 

vt 0 1.06237
vn 0 0 -1
v -78.7402 -1.57772e-030 -78.7402
vt -0.999875 1.06237
v -78.7402 9.84252 -78.7402
vt -0.999875 0.999875
vt 0 0.999875
f 26/28/7 27/29/7 28/30/7 21/31/7 

vt -1.06237 0.999875
v -78.7402 -1.57772e-030 78.7402
vt -1.06237 9.02276e-017
vt -0.999875 9.02276e-017
vt -0.999875 0.999875
f 27/32/5 29/33/5 4/34/5 28/35/5 

vt -0.999875 -0.0624922
vt 0 -0.0624922
vt -0.999875 0
f 29/36/1 25/37/1 9/12/1 4/38/1 

vt -0.999875 0.999875
f 4/38/6 9/12/6 21/27/6 28/39/6 

g Mesh5 Group5 Model

usemtl c8c64b071a57ec768c320ea7279b9b15
v -59.0551 9.84252 -59.0551
v -59.0551 88.5827 -59.0551
v -78.7402 88.5827 -59.0551
v -78.7402 9.84252 -59.0551
f 30/1/1 31/2/1 32/3/1 33/4/1 

v -59.0551 9.84252 -78.7402
v -59.0551 88.5827 -78.7402
f 30/5/2 34/6/2 35/7/2 31/8/2 

usemtl FrontColor
f 28/9/3 34/10/3 30/11/3 33/12/3 

usemtl c8c64b071a57ec768c320ea7279b9b15
v -78.7402 88.5827 -78.7402
f 34/13/4 28/14/4 36/15/4 35/16/4 

f 32/17/5 36/18/5 28/19/5 33/20/5 

f 31/21/6 35/22/6 36/23/6 32/24/6 

